<?xml version="1.0" encoding="utf-8"?>
<!-- Generator: Adobe Illustrator 25.2.3, SVG Export Plug-In . SVG Version: 6.00 Build 0)  -->
<svg version="1.1" id="Layer_1" xmlns="http://www.w3.org/2000/svg" xmlns:xlink="http://www.w3.org/1999/xlink" x="0px" y="0px"
	 viewBox="0 0 200 85" style="enable-background:new 0 0 200 85;" xml:space="preserve">
<style type="text/css">
	.st0{fill:#0B596C;}
	.st1{fill:#CBBBA0;}
	.st2{fill:#0B596C;stroke:#CBBBA0;stroke-width:0.6775;stroke-miterlimit:10;}
	.st3{opacity:0.37;}
	.st4{fill:#8C8070;}
	.st5{opacity:0.27;fill:#093A42;}
</style>
<g>
	<g>
		<path class="st0" d="M86.68,36.88h-5.77v4.04c0,0.38,0.02,0.62,0.05,0.73c0.04,0.1,0.1,0.19,0.2,0.26s0.27,0.11,0.51,0.11v0.11
			h-2.72v-0.11c0.5,0.03,0.74-0.21,0.74-0.72v-8.45c0-0.48-0.04-0.78-0.12-0.91c-0.08-0.13-0.29-0.2-0.62-0.21v-0.11h2.72v0.11
			c-0.3,0.02-0.5,0.08-0.61,0.17c-0.11,0.09-0.16,0.29-0.16,0.58v4.11h5.77v-3.76c0-0.43-0.04-0.72-0.11-0.87
			c-0.07-0.15-0.28-0.23-0.62-0.23v-0.11h2.68v0.11c-0.21,0-0.37,0.03-0.47,0.08c-0.1,0.05-0.17,0.13-0.21,0.23
			c-0.04,0.1-0.06,0.37-0.06,0.8v8.07c0,0.41,0.02,0.67,0.06,0.77c0.04,0.1,0.1,0.19,0.2,0.25s0.26,0.1,0.49,0.1v0.11h-2.68v-0.11
			c0.29,0,0.48-0.06,0.58-0.18s0.15-0.44,0.15-0.96V36.88z"/>
		<path class="st0" d="M96.32,31.45c1.48,0,2.68,0.45,3.62,1.35c0.94,0.9,1.41,2.02,1.41,3.36c0,1.73-0.54,3.18-1.63,4.36
			c-1.08,1.18-2.52,1.77-4.32,1.77c-1.46,0-2.65-0.48-3.58-1.43c-0.93-0.95-1.39-2.09-1.39-3.43c0-0.9,0.22-1.82,0.67-2.77
			s1.12-1.72,2.02-2.32C94.03,31.75,95.09,31.45,96.32,31.45z M96.28,41.73c0.72,0,1.44-0.19,2.14-0.58c0.7-0.39,1.26-0.92,1.66-1.6
			c0.4-0.68,0.61-1.38,0.61-2.1c0-1.02-0.27-1.94-0.82-2.78c-0.54-0.83-1.25-1.48-2.12-1.96c-0.87-0.47-1.67-0.71-2.41-0.71
			c-1.04,0-1.99,0.39-2.84,1.18c-0.85,0.79-1.27,1.76-1.27,2.93c0,1.49,0.52,2.8,1.56,3.93S94.99,41.73,96.28,41.73z"/>
		<path class="st0" d="M112.93,42.12h-1.99V40.5c-1.01,1.13-2.22,1.69-3.62,1.69c-1.04,0-1.87-0.29-2.48-0.88
			c-0.61-0.58-0.92-1.39-0.92-2.43v-6.3c0-0.38-0.05-0.62-0.14-0.72c-0.09-0.1-0.3-0.15-0.64-0.15v-0.11h2.79v0.11
			c-0.29,0-0.5,0.05-0.62,0.14c-0.12,0.09-0.18,0.31-0.18,0.66v5.77c0,1.21,0.28,2.07,0.85,2.59c0.57,0.52,1.21,0.77,1.93,0.77
			c1.14,0,2.14-0.51,3.02-1.54V33c0-0.62-0.05-0.99-0.16-1.11c-0.11-0.12-0.28-0.17-0.51-0.17h-0.1v-0.11h2.77v0.11
			c-0.34,0.02-0.56,0.08-0.65,0.17c-0.09,0.09-0.13,0.28-0.13,0.54v8.56c0,0.34,0.02,0.56,0.05,0.66s0.1,0.19,0.2,0.26
			c0.1,0.07,0.28,0.1,0.52,0.1V42.12z"/>
		<path class="st0" d="M119.87,31.74l0.5,1.31l-0.09,0.01c0,0-0.13-0.15-0.4-0.42c-0.26-0.28-0.57-0.49-0.91-0.64
			c-0.34-0.15-0.72-0.23-1.15-0.23c-0.72,0-1.29,0.21-1.71,0.62c-0.42,0.41-0.63,0.91-0.63,1.49c0,0.38,0.1,0.72,0.3,1.01
			c0.2,0.29,0.61,0.56,1.24,0.81c1.08,0.36,1.82,0.64,2.22,0.82c0.4,0.18,0.78,0.49,1.15,0.93s0.55,1,0.55,1.68
			c0,0.29-0.03,0.56-0.1,0.82s-0.17,0.51-0.32,0.75s-0.32,0.46-0.53,0.66s-0.42,0.35-0.63,0.45c-0.21,0.1-0.55,0.18-1.01,0.23
			c-0.46,0.05-0.77,0.08-0.91,0.08h-2.8v-3.05h0.11c0.01,1.01,0.25,1.72,0.71,2.12c0.47,0.4,1.19,0.6,2.18,0.6
			c0.89,0,1.57-0.21,2.04-0.63s0.7-0.93,0.7-1.53c0-0.36-0.08-0.67-0.24-0.92c-0.16-0.25-0.39-0.48-0.68-0.67
			c-0.29-0.19-0.84-0.43-1.65-0.71c-0.8-0.28-1.37-0.53-1.7-0.74c-0.33-0.21-0.6-0.53-0.82-0.96c-0.22-0.43-0.33-0.86-0.33-1.3
			c0-0.81,0.28-1.5,0.84-2.05c0.56-0.55,1.29-0.83,2.2-0.83c0.35,0,0.73,0.04,1.14,0.12s0.64,0.13,0.69,0.16
			C119.83,31.74,119.85,31.74,119.87,31.74z"/>
		<path class="st0" d="M122.56,31.73v-0.12h6.61v1.45h-0.11c-0.14-0.54-0.26-0.85-0.36-0.95c-0.1-0.09-0.34-0.14-0.72-0.14h-3.47
			v4.72h3.22c0.32,0,0.52-0.03,0.61-0.09s0.13-0.15,0.14-0.26h0.11v0.99h-0.11c-0.02-0.14-0.08-0.23-0.17-0.28
			c-0.09-0.05-0.25-0.07-0.49-0.07h-3.31v3.25c0,0.49,0.05,0.84,0.14,1.06c0.09,0.22,0.23,0.35,0.43,0.41s0.5,0.08,0.89,0.08h1.85
			c0.59,0,0.96-0.02,1.13-0.06s0.3-0.12,0.42-0.24c0.11-0.12,0.2-0.38,0.26-0.79h0.11v1.44h-7.19v-0.11
			c0.24-0.01,0.43-0.06,0.55-0.14s0.19-0.28,0.19-0.61v-8.49c0-0.39-0.03-0.66-0.1-0.81C123.14,31.81,122.92,31.73,122.56,31.73z"/>
		<path class="st0" d="M136.22,31.71v-0.11h3c1.07,0,1.84,0.12,2.32,0.36c0.48,0.24,0.84,0.53,1.06,0.89
			c0.22,0.35,0.33,0.82,0.33,1.4c0,0.89-0.31,1.56-0.92,2.01c-0.61,0.45-1.45,0.66-2.5,0.64V36.8c0.67,0,1.21-0.21,1.62-0.61
			c0.42-0.41,0.62-0.95,0.62-1.61c0-0.52-0.1-0.98-0.3-1.38c-0.2-0.4-0.49-0.71-0.85-0.92c-0.37-0.21-0.93-0.31-1.68-0.31h-0.75
			v8.99c0,0.51,0.06,0.81,0.17,0.91c0.11,0.1,0.33,0.15,0.65,0.15v0.11h-2.78v-0.11c0.5,0,0.74-0.23,0.74-0.68v-8.7
			c0-0.37-0.05-0.62-0.14-0.74C136.72,31.77,136.52,31.71,136.22,31.71z"/>
		<path class="st0" d="M150.5,31.45c1.48,0,2.68,0.45,3.62,1.35c0.94,0.9,1.41,2.02,1.41,3.36c0,1.73-0.54,3.18-1.63,4.36
			c-1.08,1.18-2.52,1.77-4.32,1.77c-1.46,0-2.65-0.48-3.58-1.43c-0.93-0.95-1.39-2.09-1.39-3.43c0-0.9,0.22-1.82,0.67-2.77
			s1.12-1.72,2.02-2.32C148.2,31.75,149.26,31.45,150.5,31.45z M150.45,41.73c0.72,0,1.44-0.19,2.14-0.58
			c0.7-0.39,1.26-0.92,1.66-1.6c0.4-0.68,0.61-1.38,0.61-2.1c0-1.02-0.27-1.94-0.82-2.78c-0.54-0.83-1.25-1.48-2.12-1.96
			c-0.87-0.47-1.67-0.71-2.41-0.71c-1.04,0-1.99,0.39-2.84,1.18c-0.85,0.79-1.27,1.76-1.27,2.93c0,1.49,0.52,2.8,1.56,3.93
			S149.16,41.73,150.45,41.73z"/>
		<path class="st0" d="M160.04,31.61v0.11c-0.14-0.01-0.29,0.01-0.46,0.06c-0.17,0.06-0.27,0.14-0.3,0.25
			c-0.03,0.11-0.05,0.37-0.05,0.78v8.07c0,0.44,0.02,0.71,0.05,0.8c0.04,0.1,0.1,0.18,0.21,0.24s0.28,0.1,0.55,0.1v0.11h-2.8v-0.11
			c0.35,0,0.57-0.07,0.66-0.2c0.09-0.13,0.13-0.44,0.13-0.92V32.9c0-0.5-0.05-0.83-0.14-0.98c-0.09-0.15-0.31-0.22-0.64-0.2v-0.11
			H160.04z"/>
		<path class="st0" d="M170.46,31.61h2.03v0.11c-0.31,0.01-0.52,0.08-0.64,0.2c-0.12,0.12-0.18,0.38-0.18,0.77v9.57l-8.39-8.93v7.77
			c0,0.25,0.02,0.43,0.06,0.55c0.04,0.12,0.09,0.2,0.16,0.24s0.25,0.09,0.54,0.13v0.11h-2.02v-0.11c0.36,0,0.59-0.06,0.67-0.19
			c0.09-0.13,0.13-0.43,0.13-0.92v-7.11c0-0.62-0.09-1.13-0.26-1.53s-0.57-0.58-1.2-0.55v-0.11h1.98l7.88,8.39v-7.42
			c0-0.4-0.07-0.64-0.21-0.73c-0.14-0.09-0.33-0.13-0.55-0.13V31.61z"/>
		<path class="st0" d="M182.56,31.24l-0.5,1.27h-0.11c0.02-0.08,0.03-0.18,0.03-0.31c0-0.11-0.04-0.18-0.12-0.21
			c-0.08-0.03-0.2-0.05-0.37-0.05h-2.74v9c0,0.37,0.03,0.62,0.09,0.76s0.14,0.22,0.24,0.26c0.1,0.04,0.27,0.05,0.5,0.05v0.11h-2.85
			v-0.11c0.36-0.02,0.58-0.09,0.67-0.21c0.09-0.11,0.13-0.35,0.13-0.71v-9.14h-2.63c-0.27,0-0.44,0.02-0.52,0.05
			s-0.12,0.11-0.12,0.23c0,0.06,0.02,0.16,0.06,0.29h-0.11l-0.5-1.27h0.11c0.08,0.17,0.17,0.27,0.25,0.31
			c0.08,0.04,0.26,0.05,0.54,0.05h6.98c0.28,0,0.47-0.02,0.6-0.05c0.12-0.04,0.21-0.14,0.27-0.31H182.56z"/>
	</g>
	<g>
		<path class="st1" d="M79.15,49.44v-5.24h2.64c0.5,0,0.9,0.13,1.21,0.4c0.31,0.27,0.46,0.62,0.46,1.06c0,0.5-0.17,0.87-0.51,1.11
			c-0.09,0.06-0.19,0.11-0.31,0.16c0.07,0.02,0.12,0.05,0.18,0.09c0.3,0.18,0.46,0.48,0.47,0.9l0.02,0.86
			c0,0.17,0.02,0.29,0.05,0.36c0.03,0.07,0.09,0.13,0.18,0.17v0.14h-1.21c-0.03-0.05-0.06-0.17-0.08-0.35
			c-0.02-0.18-0.03-0.37-0.03-0.58l-0.01-0.48c0-0.23-0.08-0.4-0.21-0.5s-0.36-0.15-0.67-0.15h-1.09v2.07H79.15z M80.25,46.48h1.27
			c0.28,0,0.49-0.06,0.63-0.17c0.14-0.12,0.21-0.29,0.21-0.52c0-0.23-0.07-0.4-0.2-0.52c-0.14-0.12-0.34-0.17-0.6-0.17h-1.31V46.48z
			"/>
		<path class="st1" d="M92.35,49.53c-0.59,0-1.04-0.18-1.37-0.54c-0.32-0.36-0.48-0.88-0.48-1.55c0-0.62,0.16-1.11,0.49-1.46
			s0.78-0.53,1.36-0.53c0.59,0,1.04,0.18,1.37,0.54c0.32,0.36,0.48,0.87,0.48,1.53c0,0.08,0,0.15-0.02,0.23h-2.64
			c0.02,0.31,0.09,0.54,0.2,0.69c0.14,0.19,0.38,0.29,0.71,0.29c0.15,0,0.3-0.04,0.43-0.13c0.13-0.09,0.21-0.19,0.24-0.32h1.04
			c-0.09,0.4-0.29,0.71-0.62,0.93C93.22,49.42,92.82,49.53,92.35,49.53z M93.12,47.1c-0.02-0.23-0.08-0.41-0.18-0.55
			c-0.13-0.17-0.33-0.26-0.61-0.26c-0.26,0-0.46,0.1-0.6,0.3c-0.08,0.13-0.15,0.29-0.18,0.5H93.12z"/>
		<path class="st1" d="M102.26,49.53c-0.36,0-0.65-0.1-0.87-0.31s-0.33-0.48-0.33-0.81c0-0.35,0.1-0.63,0.3-0.85
			c0.2-0.21,0.49-0.35,0.86-0.4l0.68-0.09c0.18-0.03,0.32-0.06,0.44-0.12c0.05-0.02,0.09-0.07,0.11-0.13s0.04-0.12,0.03-0.19
			c-0.01-0.11-0.07-0.19-0.17-0.25c-0.11-0.07-0.28-0.11-0.5-0.11c-0.2,0-0.35,0.05-0.46,0.14c-0.11,0.09-0.17,0.23-0.17,0.4h-0.98
			c0.02-0.45,0.18-0.79,0.46-1.02s0.71-0.34,1.26-0.34c0.48,0,0.86,0.1,1.14,0.3c0.28,0.2,0.42,0.48,0.42,0.83v2.17
			c0,0.17,0.01,0.29,0.04,0.36c0.03,0.07,0.09,0.13,0.17,0.16v0.14h-1.11c-0.05-0.16-0.08-0.31-0.09-0.46l0-0.01
			C103.19,49.34,102.78,49.53,102.26,49.53z M103.49,48v-0.44c-0.12,0.07-0.28,0.12-0.47,0.16l-0.38,0.07
			c-0.18,0.03-0.31,0.09-0.41,0.18c-0.09,0.09-0.14,0.2-0.14,0.34c0,0.16,0.04,0.28,0.12,0.37c0.08,0.09,0.2,0.13,0.35,0.13
			c0.33,0,0.59-0.12,0.79-0.34c0.04-0.05,0.07-0.11,0.09-0.2C103.48,48.17,103.49,48.09,103.49,48z"/>
		<path class="st1" d="M111.89,49.44v-5.24h1.02v5.24H111.89z"/>
		<path class="st1" d="M128.68,49.44v-5.24h3.86v0.93h-2.76v1.11h2.56v0.9h-2.56v1.37h2.88v0.93H128.68z"/>
		<path class="st1" d="M142.13,46.72c0-0.15-0.06-0.27-0.19-0.36c-0.12-0.09-0.29-0.13-0.49-0.13c-0.2,0-0.35,0.03-0.46,0.1
			c-0.11,0.07-0.17,0.16-0.17,0.28c0,0.08,0.06,0.16,0.19,0.22c0.12,0.06,0.35,0.13,0.66,0.2c0.63,0.14,1.05,0.29,1.26,0.46
			c0.21,0.17,0.32,0.43,0.32,0.79c0,0.38-0.16,0.69-0.46,0.92c-0.31,0.23-0.71,0.35-1.22,0.35c-0.6,0-1.06-0.11-1.38-0.34
			c-0.32-0.23-0.49-0.56-0.52-1h1.04c0.01,0.18,0.09,0.32,0.24,0.42c0.15,0.1,0.36,0.15,0.62,0.15c0.2,0,0.36-0.04,0.48-0.1
			c0.11-0.07,0.17-0.17,0.17-0.29c0-0.09-0.06-0.16-0.17-0.23c-0.11-0.06-0.31-0.12-0.59-0.18c-0.66-0.15-1.09-0.3-1.32-0.47
			c-0.22-0.16-0.33-0.41-0.33-0.75c0-0.39,0.14-0.7,0.43-0.93s0.66-0.35,1.13-0.35c0.53,0,0.95,0.12,1.28,0.35
			c0.32,0.23,0.49,0.54,0.49,0.92H142.13z"/>
		<path class="st1" d="M152.24,49.46c-0.17,0.01-0.38,0.02-0.63,0.02c-0.36,0-0.62-0.06-0.78-0.19c-0.16-0.13-0.24-0.34-0.24-0.63
			v-2.38h-0.54v-0.72h0.54v-1.04h1.02v1.04h0.63v0.72h-0.63v2.21c0,0.09,0.03,0.15,0.08,0.18c0.05,0.03,0.17,0.04,0.33,0.04h0.21
			V49.46z"/>
		<path class="st1" d="M160.28,49.53c-0.36,0-0.65-0.1-0.87-0.31s-0.33-0.48-0.33-0.81c0-0.35,0.1-0.63,0.3-0.85
			c0.2-0.21,0.49-0.35,0.86-0.4l0.68-0.09c0.18-0.03,0.32-0.06,0.44-0.12c0.05-0.02,0.09-0.07,0.11-0.13s0.04-0.12,0.03-0.19
			c-0.01-0.11-0.07-0.19-0.17-0.25c-0.11-0.07-0.28-0.11-0.5-0.11c-0.2,0-0.35,0.05-0.46,0.14c-0.11,0.09-0.17,0.23-0.17,0.4h-0.98
			c0.02-0.45,0.18-0.79,0.46-1.02s0.71-0.34,1.26-0.34c0.48,0,0.86,0.1,1.14,0.3c0.28,0.2,0.42,0.48,0.42,0.83v2.17
			c0,0.17,0.01,0.29,0.04,0.36c0.03,0.07,0.09,0.13,0.17,0.16v0.14h-1.11c-0.05-0.16-0.08-0.31-0.09-0.46l0-0.01
			C161.21,49.34,160.79,49.53,160.28,49.53z M161.51,48v-0.44c-0.12,0.07-0.28,0.12-0.47,0.16l-0.38,0.07
			c-0.18,0.03-0.31,0.09-0.41,0.18c-0.09,0.09-0.14,0.2-0.14,0.34c0,0.16,0.04,0.28,0.12,0.37c0.08,0.09,0.2,0.13,0.35,0.13
			c0.33,0,0.59-0.12,0.79-0.34c0.04-0.05,0.07-0.11,0.09-0.2C161.5,48.17,161.51,48.09,161.51,48z"/>
		<path class="st1" d="M171.66,49.46c-0.17,0.01-0.38,0.02-0.63,0.02c-0.36,0-0.62-0.06-0.78-0.19c-0.16-0.13-0.24-0.34-0.24-0.63
			v-2.38h-0.54v-0.72h0.54v-1.04h1.02v1.04h0.63v0.72h-0.63v2.21c0,0.09,0.03,0.15,0.08,0.18c0.05,0.03,0.17,0.04,0.33,0.04h0.21
			V49.46z"/>
		<path class="st1" d="M180.31,49.53c-0.59,0-1.04-0.18-1.37-0.54c-0.32-0.36-0.48-0.88-0.48-1.55c0-0.62,0.16-1.11,0.49-1.46
			s0.78-0.53,1.36-0.53c0.59,0,1.04,0.18,1.37,0.54c0.32,0.36,0.48,0.87,0.48,1.53c0,0.08,0,0.15-0.02,0.23h-2.64
			c0.02,0.31,0.09,0.54,0.2,0.69c0.14,0.19,0.38,0.29,0.71,0.29c0.15,0,0.3-0.04,0.43-0.13c0.13-0.09,0.21-0.19,0.24-0.32h1.04
			c-0.09,0.4-0.29,0.71-0.62,0.93C181.19,49.42,180.79,49.53,180.31,49.53z M181.09,47.1c-0.02-0.23-0.08-0.41-0.18-0.55
			c-0.13-0.17-0.33-0.26-0.61-0.26c-0.26,0-0.46,0.1-0.6,0.3c-0.08,0.13-0.15,0.29-0.18,0.5H181.09z"/>
	</g>
	<g>
		<path class="st0" d="M78.66,52.14h2.41v0.46h-2.41V52.14z M79.63,52.42h0.48v3.13h-0.48V52.42z"/>
		<path class="st0" d="M82.55,52.14h0.48v3.41h-0.48V52.14z M84.03,54.08c0-0.17-0.04-0.3-0.13-0.4s-0.21-0.14-0.38-0.14
			c-0.16,0-0.28,0.04-0.36,0.12c-0.09,0.08-0.13,0.2-0.13,0.34l-0.05-0.47c0.08-0.14,0.17-0.25,0.29-0.33s0.25-0.12,0.4-0.12
			c0.26,0,0.47,0.09,0.61,0.26s0.22,0.42,0.22,0.73v1.48h-0.48V54.08z"/>
		<path class="st0" d="M86.8,55.46c-0.16-0.08-0.28-0.21-0.36-0.37c-0.08-0.16-0.13-0.36-0.13-0.59v-0.27
			c0-0.24,0.04-0.45,0.12-0.62c0.08-0.17,0.2-0.3,0.35-0.39s0.34-0.13,0.55-0.13c0.2,0,0.38,0.05,0.52,0.15s0.25,0.25,0.33,0.44
			c0.08,0.19,0.11,0.42,0.11,0.69v0.16h-1.64v-0.38h1.19c-0.01-0.2-0.07-0.35-0.15-0.46s-0.21-0.17-0.36-0.17
			c-0.18,0-0.32,0.06-0.42,0.18c-0.1,0.12-0.15,0.29-0.15,0.5v0.31c0,0.2,0.05,0.36,0.16,0.46c0.11,0.11,0.26,0.16,0.45,0.16
			c0.1,0,0.19-0.02,0.29-0.06c0.09-0.04,0.18-0.09,0.25-0.16l0.31,0.31c-0.12,0.12-0.26,0.21-0.41,0.27
			c-0.15,0.06-0.3,0.09-0.45,0.09C87.16,55.59,86.96,55.54,86.8,55.46z"/>
		<path class="st0" d="M93.53,52.14h0.41l1.26,3.41h-0.52l-0.94-2.75l-0.95,2.75h-0.52L93.53,52.14z M92.85,54.35h1.79v0.46h-1.79
			V54.35z"/>
		<path class="st0" d="M96.82,53.12h0.48v2.43h-0.48V53.12z M98,53.58c-0.06-0.03-0.14-0.04-0.22-0.04c-0.15,0-0.27,0.04-0.35,0.12
			c-0.08,0.08-0.12,0.2-0.12,0.35l-0.05-0.47c0.08-0.14,0.17-0.26,0.29-0.34c0.12-0.08,0.25-0.12,0.39-0.12
			c0.11,0,0.21,0.02,0.3,0.05s0.17,0.08,0.24,0.14l-0.31,0.42C98.11,53.64,98.06,53.6,98,53.58z"/>
		<path class="st0" d="M99.83,53.12h1.1v0.43h-1.1V53.12z M100.22,55.4c-0.09-0.11-0.14-0.27-0.14-0.48v-2.51h0.48v2.51
			c0,0.06,0.01,0.1,0.04,0.14s0.06,0.05,0.1,0.05h0.23v0.46h-0.28C100.45,55.56,100.31,55.51,100.22,55.4z"/>
		<path class="st0" d="M105.57,55.46c-0.15-0.08-0.26-0.2-0.34-0.36c-0.08-0.16-0.12-0.35-0.12-0.57v-0.4
			c0-0.22,0.04-0.41,0.12-0.57c0.08-0.16,0.19-0.28,0.34-0.36s0.33-0.12,0.54-0.12s0.39,0.04,0.54,0.12
			c0.15,0.08,0.26,0.2,0.34,0.36s0.12,0.35,0.12,0.57v0.4c0,0.22-0.04,0.41-0.12,0.57s-0.19,0.28-0.34,0.36
			c-0.15,0.08-0.33,0.12-0.54,0.12S105.72,55.54,105.57,55.46z M106.5,54.97c0.09-0.1,0.14-0.25,0.14-0.44v-0.4
			c0-0.19-0.04-0.33-0.14-0.44c-0.09-0.1-0.22-0.15-0.39-0.15c-0.17,0-0.3,0.05-0.39,0.15c-0.09,0.1-0.14,0.25-0.14,0.44v0.4
			c0,0.19,0.05,0.34,0.14,0.44c0.09,0.11,0.22,0.16,0.39,0.16C106.28,55.13,106.41,55.08,106.5,54.97z"/>
		<path class="st0" d="M108.76,53.12h1.22v0.41h-1.22V53.12z M109.02,52.79c0-0.21,0.05-0.38,0.15-0.48
			c0.1-0.11,0.25-0.16,0.46-0.16h0.35v0.46h-0.34c-0.05,0-0.08,0.02-0.1,0.05s-0.04,0.08-0.04,0.13v2.77h-0.48V52.79z"/>
		<path class="st0" d="M114.11,52.14h0.48v3.41h-0.48V52.14z M114.35,53.77h1.09c0.1,0,0.19-0.02,0.27-0.07
			c0.08-0.05,0.14-0.12,0.18-0.21c0.04-0.09,0.06-0.19,0.06-0.31c0-0.12-0.02-0.22-0.06-0.31s-0.1-0.16-0.18-0.21
			c-0.08-0.05-0.17-0.07-0.27-0.07h-1.09v-0.46h1.07c0.2,0,0.38,0.04,0.54,0.13c0.15,0.09,0.27,0.21,0.36,0.37
			c0.08,0.16,0.13,0.34,0.13,0.55s-0.04,0.39-0.13,0.55c-0.08,0.16-0.21,0.28-0.36,0.36c-0.16,0.09-0.33,0.13-0.54,0.13h-1.07V53.77
			z"/>
		<path class="st0" d="M118.2,53.12h0.48v2.43h-0.48V53.12z M119.38,53.58c-0.06-0.03-0.14-0.04-0.22-0.04
			c-0.15,0-0.27,0.04-0.35,0.12c-0.08,0.08-0.12,0.2-0.12,0.35l-0.05-0.47c0.08-0.14,0.17-0.26,0.29-0.34
			c0.12-0.08,0.25-0.12,0.39-0.12c0.11,0,0.21,0.02,0.3,0.05s0.17,0.08,0.24,0.14l-0.31,0.42C119.5,53.64,119.45,53.6,119.38,53.58z
			"/>
		<path class="st0" d="M121.8,55.46c-0.15-0.08-0.26-0.2-0.34-0.36c-0.08-0.16-0.12-0.35-0.12-0.57v-0.4c0-0.22,0.04-0.41,0.12-0.57
			c0.08-0.16,0.19-0.28,0.34-0.36s0.33-0.12,0.54-0.12s0.39,0.04,0.54,0.12c0.15,0.08,0.26,0.2,0.34,0.36s0.12,0.35,0.12,0.57v0.4
			c0,0.22-0.04,0.41-0.12,0.57s-0.19,0.28-0.34,0.36c-0.15,0.08-0.33,0.12-0.54,0.12S121.95,55.54,121.8,55.46z M122.73,54.97
			c0.09-0.1,0.14-0.25,0.14-0.44v-0.4c0-0.19-0.04-0.33-0.14-0.44c-0.09-0.1-0.22-0.15-0.39-0.15c-0.17,0-0.3,0.05-0.39,0.15
			c-0.09,0.1-0.14,0.25-0.14,0.44v0.4c0,0.19,0.05,0.34,0.14,0.44c0.09,0.11,0.22,0.16,0.39,0.16
			C122.51,55.13,122.63,55.08,122.73,54.97z"/>
		<path class="st0" d="M125.17,53.12h0.48v3.42h-0.48V53.12z M125.87,55.48c-0.11-0.07-0.2-0.17-0.25-0.31l0.03-0.51
			c0,0.1,0.02,0.19,0.06,0.27c0.04,0.07,0.09,0.13,0.16,0.17c0.07,0.04,0.16,0.06,0.26,0.06c0.16,0,0.28-0.05,0.37-0.14
			c0.09-0.1,0.13-0.23,0.13-0.41v-0.53c0-0.18-0.04-0.32-0.13-0.42c-0.09-0.1-0.21-0.15-0.37-0.15c-0.1,0-0.19,0.02-0.26,0.06
			c-0.07,0.04-0.12,0.09-0.16,0.17c-0.04,0.07-0.06,0.16-0.06,0.26l-0.05-0.47c0.07-0.14,0.17-0.25,0.29-0.33
			c0.12-0.08,0.25-0.12,0.4-0.12c0.17,0,0.32,0.04,0.44,0.12s0.22,0.19,0.28,0.34s0.1,0.33,0.1,0.54v0.53c0,0.21-0.03,0.38-0.1,0.53
			c-0.07,0.15-0.16,0.26-0.29,0.34c-0.13,0.08-0.28,0.12-0.45,0.12C126.11,55.59,125.98,55.55,125.87,55.48z"/>
		<path class="st0" d="M129.36,55.46c-0.16-0.08-0.28-0.21-0.36-0.37c-0.08-0.16-0.13-0.36-0.13-0.59v-0.27
			c0-0.24,0.04-0.45,0.12-0.62c0.08-0.17,0.2-0.3,0.35-0.39s0.34-0.13,0.55-0.13c0.2,0,0.38,0.05,0.52,0.15s0.25,0.25,0.33,0.44
			c0.08,0.19,0.11,0.42,0.11,0.69v0.16h-1.64v-0.38h1.19c-0.01-0.2-0.07-0.35-0.15-0.46s-0.21-0.17-0.36-0.17
			c-0.18,0-0.32,0.06-0.42,0.18c-0.1,0.12-0.15,0.29-0.15,0.5v0.31c0,0.2,0.05,0.36,0.16,0.46c0.11,0.11,0.26,0.16,0.45,0.16
			c0.1,0,0.19-0.02,0.29-0.06c0.09-0.04,0.18-0.09,0.25-0.16l0.31,0.31c-0.12,0.12-0.26,0.21-0.41,0.27
			c-0.15,0.06-0.3,0.09-0.45,0.09C129.71,55.59,129.52,55.54,129.36,55.46z"/>
		<path class="st0" d="M132.67,53.12h0.48v2.43h-0.48V53.12z M133.84,53.58c-0.06-0.03-0.14-0.04-0.22-0.04
			c-0.15,0-0.27,0.04-0.35,0.12c-0.08,0.08-0.12,0.2-0.12,0.35l-0.05-0.47c0.08-0.14,0.17-0.26,0.29-0.34
			c0.12-0.08,0.25-0.12,0.39-0.12c0.11,0,0.21,0.02,0.3,0.05s0.17,0.08,0.24,0.14L134,53.69C133.96,53.64,133.91,53.6,133.84,53.58z
			"/>
		<path class="st0" d="M135.68,53.12h1.1v0.43h-1.1V53.12z M136.07,55.4c-0.09-0.11-0.14-0.27-0.14-0.48v-2.51h0.48v2.51
			c0,0.06,0.01,0.1,0.04,0.14s0.06,0.05,0.1,0.05h0.23v0.46h-0.28C136.3,55.56,136.16,55.51,136.07,55.4z"/>
		<path class="st0" d="M138.33,53.12h0.49l0.75,2.11l-0.26,0.52L138.33,53.12z M140.48,53.12l-1.04,3c-0.04,0.11-0.09,0.2-0.15,0.26
			c-0.06,0.07-0.14,0.11-0.22,0.14c-0.09,0.03-0.2,0.04-0.33,0.04h-0.1v-0.46h0.1c0.09,0,0.16-0.02,0.21-0.05
			c0.05-0.04,0.1-0.1,0.14-0.19l0.9-2.75H140.48z"/>
		<path class="st0" d="M147,52.14h0.45v3.41h-0.47V53l0.02,0.15l-0.84,1.93h-0.33l-0.84-1.88l0.02-0.2v2.55h-0.47v-3.41h0.45l1,2.25
			L147,52.14z"/>
		<path class="st0" d="M149.5,55.4c-0.15-0.12-0.22-0.31-0.22-0.57c0-0.24,0.07-0.42,0.2-0.54s0.34-0.18,0.62-0.18h0.69l0.03,0.38
			h-0.72c-0.12,0-0.22,0.03-0.28,0.08s-0.09,0.14-0.09,0.25c0,0.12,0.04,0.21,0.12,0.27s0.21,0.09,0.37,0.09
			c0.18,0,0.32-0.02,0.41-0.06s0.13-0.1,0.13-0.18l0.05,0.34c-0.04,0.07-0.09,0.12-0.16,0.16c-0.06,0.04-0.13,0.07-0.21,0.1
			c-0.08,0.02-0.17,0.03-0.27,0.03C149.87,55.59,149.65,55.52,149.5,55.4z M150.77,54.01c0-0.16-0.04-0.28-0.13-0.37
			c-0.08-0.09-0.21-0.13-0.36-0.13c-0.1,0-0.19,0.01-0.28,0.04c-0.09,0.03-0.18,0.07-0.25,0.12l-0.35-0.24
			c0.09-0.11,0.21-0.2,0.36-0.26c0.15-0.06,0.32-0.09,0.5-0.09c0.2,0,0.37,0.04,0.52,0.11c0.14,0.07,0.25,0.17,0.33,0.31
			c0.07,0.14,0.11,0.3,0.11,0.49v1.56h-0.46V54.01z"/>
		<path class="st0" d="M153.1,53.12h0.48v2.43h-0.48V53.12z M154.58,54.08c0-0.17-0.04-0.3-0.13-0.4s-0.21-0.14-0.38-0.14
			c-0.16,0-0.28,0.04-0.36,0.12c-0.09,0.08-0.13,0.2-0.13,0.35l-0.05-0.47c0.08-0.15,0.17-0.26,0.29-0.34
			c0.12-0.08,0.25-0.12,0.4-0.12c0.26,0,0.47,0.09,0.61,0.26s0.22,0.42,0.22,0.73v1.48h-0.48V54.08z"/>
		<path class="st0" d="M157.04,55.4c-0.15-0.12-0.22-0.31-0.22-0.57c0-0.24,0.07-0.42,0.2-0.54s0.34-0.18,0.62-0.18h0.69l0.03,0.38
			h-0.72c-0.12,0-0.22,0.03-0.28,0.08s-0.09,0.14-0.09,0.25c0,0.12,0.04,0.21,0.12,0.27s0.21,0.09,0.37,0.09
			c0.18,0,0.32-0.02,0.41-0.06s0.13-0.1,0.13-0.18l0.05,0.34c-0.04,0.07-0.09,0.12-0.16,0.16c-0.06,0.04-0.13,0.07-0.21,0.1
			c-0.08,0.02-0.17,0.03-0.27,0.03C157.41,55.59,157.19,55.52,157.04,55.4z M158.31,54.01c0-0.16-0.04-0.28-0.13-0.37
			c-0.08-0.09-0.21-0.13-0.36-0.13c-0.1,0-0.19,0.01-0.28,0.04c-0.09,0.03-0.18,0.07-0.25,0.12l-0.35-0.24
			c0.09-0.11,0.21-0.2,0.36-0.26c0.15-0.06,0.32-0.09,0.5-0.09c0.2,0,0.37,0.04,0.52,0.11c0.14,0.07,0.25,0.17,0.33,0.31
			c0.07,0.14,0.11,0.3,0.11,0.49v1.56h-0.46V54.01z"/>
		<path class="st0" d="M160.96,55.48c-0.13-0.08-0.22-0.19-0.29-0.34c-0.07-0.15-0.1-0.33-0.1-0.53v-0.54c0-0.21,0.03-0.39,0.1-0.54
			c0.06-0.15,0.16-0.26,0.28-0.34c0.12-0.08,0.27-0.12,0.44-0.12c0.14,0,0.28,0.04,0.4,0.11c0.12,0.08,0.22,0.18,0.29,0.32
			l-0.05,0.5c0-0.1-0.02-0.19-0.06-0.26s-0.09-0.13-0.16-0.17s-0.16-0.06-0.26-0.06c-0.16,0-0.28,0.05-0.37,0.15
			c-0.09,0.1-0.13,0.24-0.13,0.41v0.53c0,0.18,0.04,0.31,0.13,0.41s0.21,0.14,0.37,0.14c0.1,0,0.19-0.02,0.26-0.06
			c0.07-0.04,0.13-0.1,0.16-0.17s0.06-0.17,0.06-0.27l0.03,0.51c-0.05,0.12-0.13,0.22-0.24,0.3c-0.11,0.08-0.25,0.12-0.41,0.12
			C161.24,55.59,161.08,55.55,160.96,55.48z M160.97,56.44c-0.14-0.07-0.26-0.16-0.34-0.29l0.32-0.29c0.06,0.09,0.14,0.15,0.22,0.2
			s0.18,0.07,0.27,0.07c0.18,0,0.33-0.05,0.42-0.15s0.15-0.24,0.15-0.43v-2.43h0.48v2.36c0,0.22-0.04,0.42-0.12,0.57
			s-0.2,0.28-0.36,0.36s-0.34,0.12-0.56,0.12C161.28,56.54,161.11,56.51,160.97,56.44z"/>
		<path class="st0" d="M164.8,55.46c-0.16-0.08-0.28-0.21-0.36-0.37c-0.08-0.16-0.13-0.36-0.13-0.59v-0.27
			c0-0.24,0.04-0.45,0.12-0.62c0.08-0.17,0.2-0.3,0.35-0.39s0.34-0.13,0.55-0.13c0.2,0,0.38,0.05,0.52,0.15s0.25,0.25,0.33,0.44
			c0.08,0.19,0.11,0.42,0.11,0.69v0.16h-1.64v-0.38h1.19c-0.01-0.2-0.07-0.35-0.15-0.46s-0.21-0.17-0.36-0.17
			c-0.18,0-0.32,0.06-0.42,0.18c-0.1,0.12-0.15,0.29-0.15,0.5v0.31c0,0.2,0.05,0.36,0.16,0.46c0.11,0.11,0.26,0.16,0.45,0.16
			c0.1,0,0.19-0.02,0.29-0.06c0.09-0.04,0.18-0.09,0.25-0.16l0.31,0.31c-0.12,0.12-0.26,0.21-0.41,0.27
			c-0.15,0.06-0.3,0.09-0.45,0.09C165.16,55.59,164.96,55.54,164.8,55.46z"/>
		<path class="st0" d="M168.11,53.12h0.48v2.43h-0.48V53.12z M169.56,54.08c0-0.17-0.04-0.3-0.13-0.4s-0.2-0.14-0.36-0.14
			c-0.16,0-0.28,0.04-0.36,0.12c-0.09,0.08-0.13,0.2-0.13,0.35l-0.05-0.47c0.08-0.15,0.17-0.26,0.29-0.34
			c0.12-0.08,0.25-0.12,0.4-0.12c0.17,0,0.32,0.04,0.44,0.12s0.21,0.19,0.28,0.34s0.09,0.33,0.09,0.54v1.48h-0.48V54.08z
			 M171.02,54.08c0-0.17-0.04-0.3-0.13-0.4c-0.09-0.09-0.21-0.14-0.38-0.14c-0.15,0-0.26,0.04-0.34,0.14s-0.12,0.22-0.12,0.38
			l-0.1-0.47c0.08-0.16,0.18-0.29,0.3-0.37c0.13-0.09,0.26-0.13,0.42-0.13c0.17,0,0.33,0.04,0.45,0.12s0.22,0.19,0.28,0.34
			c0.07,0.15,0.1,0.33,0.1,0.54v1.48h-0.48V54.08z"/>
		<path class="st0" d="M173.79,55.46c-0.16-0.08-0.28-0.21-0.36-0.37c-0.08-0.16-0.13-0.36-0.13-0.59v-0.27
			c0-0.24,0.04-0.45,0.12-0.62c0.08-0.17,0.2-0.3,0.35-0.39s0.34-0.13,0.55-0.13c0.2,0,0.38,0.05,0.52,0.15s0.25,0.25,0.33,0.44
			c0.08,0.19,0.11,0.42,0.11,0.69v0.16h-1.64v-0.38h1.19c-0.01-0.2-0.07-0.35-0.15-0.46s-0.21-0.17-0.36-0.17
			c-0.18,0-0.32,0.06-0.42,0.18c-0.1,0.12-0.15,0.29-0.15,0.5v0.31c0,0.2,0.05,0.36,0.16,0.46c0.11,0.11,0.26,0.16,0.45,0.16
			c0.1,0,0.19-0.02,0.29-0.06c0.09-0.04,0.18-0.09,0.25-0.16l0.31,0.31c-0.12,0.12-0.26,0.21-0.41,0.27
			c-0.15,0.06-0.3,0.09-0.45,0.09C174.15,55.59,173.95,55.54,173.79,55.46z"/>
		<path class="st0" d="M177.1,53.12h0.48v2.43h-0.48V53.12z M178.58,54.08c0-0.17-0.04-0.3-0.13-0.4s-0.21-0.14-0.38-0.14
			c-0.16,0-0.28,0.04-0.36,0.12c-0.09,0.08-0.13,0.2-0.13,0.35l-0.05-0.47c0.08-0.15,0.17-0.26,0.29-0.34
			c0.12-0.08,0.25-0.12,0.4-0.12c0.26,0,0.47,0.09,0.61,0.26s0.22,0.42,0.22,0.73v1.48h-0.48V54.08z"/>
		<path class="st0" d="M180.75,53.12h1.1v0.43h-1.1V53.12z M181.14,55.4c-0.09-0.11-0.14-0.27-0.14-0.48v-2.51h0.48v2.51
			c0,0.06,0.01,0.1,0.04,0.14s0.06,0.05,0.1,0.05h0.23v0.46h-0.28C181.37,55.56,181.23,55.51,181.14,55.4z"/>
	</g>
	<g>
		<circle class="st1" cx="45.56" cy="42.03" r="27.14"/>
		<circle class="st2" cx="44.58" cy="42.97" r="27.14"/>
		<g class="st3">
			<g>
				<path class="st4" d="M35.04,58.63c-0.24-0.1-0.5-0.18-0.71-0.32c-0.38-0.26-0.57-0.64-0.61-1.11c-0.01-0.07-0.01-0.15-0.01-0.22
					c0-4.72,0-9.44,0-14.16c0-0.63,0.24-1.12,0.78-1.44c0.98-0.58,2.24,0.12,2.29,1.25c0,0.09,0,0.18,0,0.27c0,4.13,0,8.27,0,12.4
					c0,0.07,0,0.14,0,0.23c6.15,0,12.29,0,18.44,0c0-0.07,0-0.15,0-0.22c0-4.17,0-8.34,0-12.51c0-0.7,0.29-1.22,0.93-1.51
					c1.01-0.45,2.1,0.28,2.14,1.42c0,0.04,0,0.08,0,0.12c0,4.71,0,9.42,0,14.13c0,0.64-0.24,1.14-0.8,1.46
					c-0.16,0.09-0.35,0.13-0.53,0.2C49.67,58.63,42.35,58.63,35.04,58.63z"/>
				<path class="st4" d="M46.19,25.77c0.48,0.08,0.81,0.38,1.16,0.69c4.84,4.35,9.68,8.69,14.52,13.04
					c0.51,0.46,0.67,1.14,0.42,1.75c-0.25,0.6-0.84,0.97-1.49,0.94c-0.36-0.02-0.68-0.14-0.94-0.38c-3.43-3.08-6.86-6.15-10.29-9.23
					c-1.15-1.03-2.29-2.06-3.44-3.09c-0.04-0.04-0.08-0.07-0.13-0.11c-0.04,0.03-0.07,0.05-0.1,0.08c-3.1,2.79-6.21,5.57-9.31,8.36
					c-1.48,1.33-2.96,2.66-4.44,3.98c-0.64,0.57-1.6,0.51-2.17-0.12c-0.57-0.63-0.52-1.59,0.11-2.17c2-1.8,4-3.6,6.01-5.39
					c2.91-2.61,5.83-5.23,8.74-7.85c0.28-0.26,0.59-0.43,0.96-0.51C45.92,25.77,46.06,25.77,46.19,25.77z"/>
			</g>
		</g>
		<path class="st5" d="M71.55,41.94c-8.59-5.39-17.17-10.78-25.76-16.17c-0.24-0.03-0.49-0.05-0.73-0.08
			c-5.51,5.06-11.02,10.11-16.53,15.17c1.41,0.57,2.82,1.15,4.23,1.72c0.1,5.15,0.2,10.3,0.3,15.45c8.26,2.61,16.52,5.23,24.78,7.84
			c2.15-1.22,6.8-4.23,10.15-9.97C71.45,49.95,71.62,44.35,71.55,41.94z"/>
		<g>
			<g>
				<path class="st1" d="M33.63,58.17c-0.24-0.1-0.5-0.18-0.71-0.32c-0.38-0.26-0.57-0.64-0.61-1.11c-0.01-0.07-0.01-0.15-0.01-0.22
					c0-4.72,0-9.44,0-14.16c0-0.63,0.24-1.12,0.78-1.44c0.98-0.58,2.24,0.12,2.29,1.25c0,0.09,0,0.18,0,0.27c0,4.13,0,8.27,0,12.4
					c0,0.07,0,0.14,0,0.23c6.15,0,12.29,0,18.44,0c0-0.07,0-0.15,0-0.22c0-4.17,0-8.34,0-12.51c0-0.7,0.29-1.22,0.93-1.51
					c1.01-0.45,2.1,0.28,2.14,1.42c0,0.04,0,0.08,0,0.12c0,4.71,0,9.42,0,14.13c0,0.64-0.24,1.14-0.8,1.46
					c-0.16,0.09-0.35,0.13-0.53,0.2C48.25,58.17,40.94,58.17,33.63,58.17z"/>
				<path class="st1" d="M44.78,25.31c0.48,0.08,0.81,0.38,1.16,0.69c4.84,4.35,9.68,8.69,14.52,13.04
					c0.51,0.46,0.67,1.14,0.42,1.75c-0.25,0.6-0.84,0.97-1.49,0.94c-0.36-0.02-0.68-0.14-0.94-0.38c-3.43-3.08-6.86-6.15-10.29-9.23
					c-1.15-1.03-2.29-2.06-3.44-3.09c-0.04-0.04-0.08-0.07-0.13-0.11c-0.04,0.03-0.07,0.05-0.1,0.08c-3.1,2.79-6.21,5.57-9.31,8.36
					c-1.48,1.33-2.96,2.66-4.44,3.98c-0.64,0.57-1.6,0.51-2.17-0.12c-0.57-0.63-0.52-1.59,0.11-2.17c2-1.8,4-3.6,6.01-5.39
					c2.91-2.61,5.83-5.23,8.74-7.85c0.28-0.26,0.59-0.43,0.96-0.51C44.51,25.31,44.65,25.31,44.78,25.31z"/>
			</g>
		</g>
	</g>
</g>
</svg>
